<svg width="358.189" height="136.624" xmlns="http://www.w3.org/2000/svg">

 <g>
  <title>background</title>
  <rect fill="none" id="canvas_background" height="402" width="582" y="-1" x="-1"/>
 </g>
 <g>
  <title>Layer 1</title>
  <g id="svg_1">
   <polygon id="svg_2" points="60.401,75 47,51.5 60.401,28 87.203,28 100.604,51.5 87.203,75  " fill="#58819B"/>
   <polygon id="svg_3" points="13.401,47 0,23.5 13.401,0 40.203,0 53.604,23.5 40.203,47  " fill="#9AC4D8"/>
   <polygon id="svg_4" points="13.401,103 0,79.5 13.401,56 40.203,56 53.604,79.5 40.203,103  " fill="#2F5775"/>
  </g>
  <g id="svg_5">
   <path id="svg_6" d="m91.773,111.11c0,0.899 -0.2,1.563 -0.601,1.993c-0.4,0.431 -0.952,0.646 -1.654,0.646l-15.901,0c0,1.116 0.132,2.13 0.396,3.04s0.684,1.684 1.26,2.32c0.576,0.636 1.319,1.12 2.227,1.453s1.998,0.499 3.268,0.499c1.289,0 2.422,-0.093 3.399,-0.277c0.977,-0.185 1.822,-0.39 2.535,-0.613s1.304,-0.429 1.773,-0.613s0.85,-0.277 1.143,-0.277c0.176,0 0.322,0.034 0.439,0.103s0.215,0.189 0.293,0.365s0.132,0.424 0.161,0.746s0.044,0.727 0.044,1.213c0,0.43 -0.01,0.795 -0.029,1.098c-0.02,0.302 -0.049,0.561 -0.088,0.774c-0.039,0.215 -0.098,0.396 -0.176,0.541c-0.078,0.146 -0.181,0.288 -0.308,0.425s-0.474,0.321 -1.041,0.556s-1.29,0.464 -2.168,0.688s-1.885,0.42 -3.018,0.586s-2.344,0.249 -3.633,0.249c-2.325,0 -4.362,-0.294 -6.11,-0.88s-3.208,-1.476 -4.38,-2.668s-2.046,-2.697 -2.623,-4.516s-0.864,-3.949 -0.864,-6.393c0,-2.326 0.302,-4.424 0.908,-6.291s1.484,-3.45 2.636,-4.75c1.152,-1.3 2.553,-2.292 4.203,-2.977c1.65,-0.684 3.51,-1.026 5.58,-1.026c2.187,0 4.056,0.323 5.608,0.968s2.826,1.539 3.822,2.683c0.996,1.144 1.728,2.497 2.196,4.062c0.469,1.563 0.703,3.264 0.703,5.102l0,1.171zm-7.156,-2.111c0.059,-2.072 -0.356,-3.7 -1.244,-4.882c-0.888,-1.184 -2.257,-1.774 -4.11,-1.774c-0.937,0 -1.75,0.177 -2.443,0.528s-1.268,0.826 -1.726,1.422c-0.458,0.596 -0.81,1.3 -1.053,2.111c-0.244,0.812 -0.385,1.676 -0.424,2.595l11,0z" fill="#ffffff"/>
   <path id="svg_7" d="m122.634,124.952c0,0.215 -0.049,0.396 -0.146,0.542s-0.263,0.269 -0.497,0.366c-0.234,0.098 -0.551,0.166 -0.951,0.205c-0.4,0.039 -0.892,0.059 -1.477,0.059c-0.624,0 -1.131,-0.02 -1.521,-0.059c-0.39,-0.039 -0.707,-0.108 -0.951,-0.205c-0.244,-0.098 -0.419,-0.22 -0.527,-0.366s-0.161,-0.328 -0.161,-0.543l0,-2.902c-1.349,1.447 -2.76,2.571 -4.236,3.373c-1.476,0.801 -3.112,1.202 -4.91,1.202c-1.994,0 -3.679,-0.386 -5.057,-1.158c-1.378,-0.772 -2.501,-1.813 -3.371,-3.123c-0.87,-1.31 -1.5,-2.839 -1.891,-4.589s-0.586,-3.592 -0.586,-5.527c0,-2.326 0.249,-4.418 0.748,-6.275c0.498,-1.857 1.226,-3.441 2.184,-4.751c0.958,-1.31 2.15,-2.316 3.577,-3.021c1.427,-0.703 3.069,-1.056 4.926,-1.056c1.466,0 2.794,0.298 3.987,0.895s2.375,1.472 3.548,2.624l0,-14.135c0,-0.195 0.053,-0.371 0.161,-0.527s0.302,-0.287 0.585,-0.395s0.658,-0.19 1.126,-0.249c0.468,-0.059 1.063,-0.088 1.784,-0.088c0.721,0 1.316,0.029 1.784,0.088c0.468,0.059 0.838,0.142 1.111,0.249s0.468,0.239 0.585,0.396s0.176,0.332 0.176,0.527l0,38.443zm-7.312,-17.476c-1.056,-1.328 -2.068,-2.344 -3.036,-3.047s-1.98,-1.055 -3.036,-1.055c-0.958,0 -1.784,0.239 -2.479,0.718s-1.251,1.119 -1.672,1.92c-0.42,0.802 -0.733,1.695 -0.938,2.682c-0.206,0.987 -0.308,1.998 -0.308,3.034c0,1.095 0.088,2.159 0.264,3.194c0.176,1.036 0.464,1.959 0.865,2.771s0.934,1.461 1.599,1.949s1.506,0.732 2.523,0.732c0.508,0 1.002,-0.073 1.481,-0.22s0.968,-0.386 1.467,-0.718c0.499,-0.332 1.012,-0.767 1.54,-1.304c0.528,-0.537 1.104,-1.196 1.73,-1.978l0,-8.678z" fill="#ffffff"/>
   <path id="svg_8" d="m154.832,124.951c0,0.195 -0.049,0.367 -0.146,0.514s-0.268,0.269 -0.512,0.366c-0.244,0.098 -0.566,0.171 -0.965,0.22c-0.4,0.049 -0.902,0.073 -1.506,0.073c-0.644,0 -1.165,-0.024 -1.564,-0.073c-0.4,-0.049 -0.717,-0.122 -0.951,-0.22c-0.234,-0.098 -0.4,-0.22 -0.498,-0.366s-0.146,-0.318 -0.146,-0.514l0,-3.02c-1.447,1.564 -2.918,2.736 -4.413,3.52c-1.496,0.781 -3.045,1.173 -4.647,1.173c-1.799,0 -3.309,-0.294 -4.53,-0.88s-2.209,-1.388 -2.961,-2.404c-0.753,-1.017 -1.291,-2.194 -1.613,-3.533c-0.323,-1.339 -0.484,-3.006 -0.484,-5l0,-16.01c0,-0.195 0.053,-0.366 0.161,-0.513s0.302,-0.269 0.585,-0.366c0.283,-0.098 0.663,-0.172 1.141,-0.221c0.478,-0.049 1.068,-0.073 1.77,-0.073c0.722,0 1.316,0.024 1.785,0.073c0.468,0.049 0.843,0.123 1.126,0.221c0.283,0.098 0.482,0.22 0.6,0.366c0.117,0.147 0.176,0.318 0.176,0.514l0,14.788c0,1.369 0.088,2.416 0.264,3.141c0.176,0.723 0.446,1.344 0.808,1.863c0.362,0.518 0.822,0.919 1.38,1.203c0.558,0.283 1.209,0.425 1.954,0.425c0.94,0 1.885,-0.343 2.834,-1.03s1.963,-1.688 3.041,-3.004l0,-17.387c0,-0.195 0.053,-0.367 0.161,-0.514s0.302,-0.268 0.585,-0.365s0.658,-0.172 1.126,-0.221c0.468,-0.049 1.063,-0.073 1.784,-0.073c0.721,0 1.316,0.024 1.784,0.073c0.468,0.049 0.838,0.123 1.111,0.221s0.468,0.219 0.585,0.365s0.176,0.318 0.176,0.514l0,26.154l-0.001,0z" fill="#ffffff"/>
   <path id="svg_9" d="m175.185,111.204c0,1.132 -0.107,1.923 -0.322,2.372s-0.556,0.673 -1.025,0.673l-12.183,0c-0.488,0 -0.84,-0.229 -1.055,-0.688c-0.215,-0.458 -0.322,-1.244 -0.322,-2.356c0,-1.093 0.107,-1.864 0.322,-2.313c0.215,-0.448 0.566,-0.673 1.055,-0.673l12.183,0c0.234,0 0.434,0.049 0.6,0.146s0.308,0.264 0.425,0.498s0.2,0.546 0.249,0.937s0.073,0.858 0.073,1.404z" fill="#ffffff"/>
   <path id="svg_10" d="m198.992,117.563c0,1.486 -0.279,2.796 -0.835,3.93c-0.557,1.134 -1.343,2.082 -2.356,2.845c-1.016,0.763 -2.216,1.335 -3.602,1.716s-2.889,0.571 -4.508,0.571c-0.976,0 -1.908,-0.073 -2.796,-0.22c-0.888,-0.147 -1.684,-0.334 -2.386,-0.559s-1.288,-0.455 -1.756,-0.689c-0.469,-0.235 -0.81,-0.455 -1.025,-0.661s-0.38,-0.528 -0.498,-0.969s-0.176,-1.091 -0.176,-1.952c0,-0.567 0.02,-1.021 0.059,-1.365c0.039,-0.342 0.097,-0.615 0.175,-0.821c0.078,-0.205 0.175,-0.343 0.292,-0.411c0.117,-0.068 0.263,-0.103 0.438,-0.103c0.214,0 0.531,0.122 0.95,0.366s0.94,0.514 1.564,0.807s1.35,0.567 2.179,0.821s1.77,0.381 2.822,0.381c0.663,0 1.252,-0.067 1.769,-0.204s0.965,-0.332 1.345,-0.585c0.38,-0.253 0.667,-0.575 0.863,-0.966c0.195,-0.389 0.292,-0.838 0.292,-1.345c0,-0.587 -0.18,-1.09 -0.541,-1.511c-0.36,-0.42 -0.838,-0.786 -1.432,-1.1c-0.594,-0.313 -1.266,-0.605 -2.016,-0.879s-1.519,-0.576 -2.308,-0.909c-0.789,-0.332 -1.559,-0.714 -2.309,-1.144s-1.422,-0.958 -2.016,-1.584c-0.594,-0.625 -1.071,-1.377 -1.432,-2.258c-0.36,-0.879 -0.541,-1.936 -0.541,-3.167c0,-1.251 0.244,-2.399 0.731,-3.445c0.487,-1.046 1.189,-1.94 2.106,-2.683c0.917,-0.744 2.033,-1.32 3.35,-1.73s2.793,-0.616 4.432,-0.616c0.819,0 1.613,0.06 2.384,0.177c0.771,0.117 1.468,0.264 2.091,0.439c0.625,0.177 1.15,0.367 1.58,0.572c0.429,0.206 0.736,0.383 0.922,0.529c0.185,0.146 0.316,0.293 0.395,0.439s0.137,0.323 0.176,0.528s0.072,0.46 0.102,0.763s0.045,0.679 0.045,1.128c0,0.528 -0.016,0.958 -0.045,1.29s-0.078,0.597 -0.146,0.792s-0.16,0.327 -0.277,0.396s-0.254,0.103 -0.409,0.103c-0.176,0 -0.448,-0.103 -0.819,-0.308c-0.369,-0.206 -0.832,-0.426 -1.389,-0.661c-0.555,-0.234 -1.199,-0.454 -1.93,-0.66c-0.731,-0.206 -1.564,-0.309 -2.5,-0.309c-0.663,0 -1.238,0.069 -1.725,0.206s-0.887,0.332 -1.199,0.586s-0.546,0.553 -0.702,0.895c-0.156,0.343 -0.234,0.709 -0.234,1.1c0,0.607 0.185,1.115 0.556,1.525s0.858,0.772 1.463,1.085c0.604,0.313 1.292,0.606 2.063,0.88s1.551,0.572 2.341,0.895c0.79,0.322 1.57,0.699 2.34,1.129s1.458,0.958 2.063,1.584c0.604,0.625 1.092,1.373 1.463,2.242c0.372,0.871 0.557,1.902 0.557,3.094z" fill="#ffffff"/>
   <path id="svg_11" d="m229.521,124.951c0,0.195 -0.059,0.367 -0.176,0.514s-0.313,0.269 -0.586,0.366s-0.648,0.171 -1.126,0.22s-1.067,0.073 -1.771,0.073c-0.721,0 -1.321,-0.024 -1.799,-0.073c-0.479,-0.049 -0.854,-0.122 -1.127,-0.22s-0.468,-0.22 -0.585,-0.367c-0.117,-0.146 -0.175,-0.317 -0.175,-0.514l0,-14.935c0,-1.271 -0.094,-2.27 -0.279,-2.993c-0.187,-0.724 -0.455,-1.345 -0.809,-1.863c-0.352,-0.519 -0.807,-0.919 -1.365,-1.203s-1.209,-0.426 -1.953,-0.426c-0.939,0 -1.89,0.343 -2.849,1.027c-0.96,0.685 -1.958,1.683 -2.995,2.993l0,17.399c0,0.196 -0.059,0.367 -0.176,0.514c-0.117,0.147 -0.317,0.27 -0.6,0.367c-0.283,0.098 -0.659,0.171 -1.127,0.22c-0.469,0.049 -1.064,0.073 -1.785,0.073c-0.723,0 -1.318,-0.024 -1.786,-0.073s-0.844,-0.122 -1.126,-0.22c-0.283,-0.098 -0.483,-0.22 -0.601,-0.366s-0.175,-0.318 -0.175,-0.514l0,-38.534c0,-0.195 0.058,-0.371 0.175,-0.527s0.317,-0.289 0.601,-0.396c0.282,-0.107 0.658,-0.19 1.126,-0.249s1.063,-0.088 1.786,-0.088c0.721,0 1.316,0.029 1.785,0.088c0.468,0.059 0.844,0.142 1.127,0.249c0.282,0.107 0.482,0.238 0.6,0.395s0.176,0.332 0.176,0.527l0,14.434c1.27,-1.25 2.564,-2.184 3.885,-2.8c1.319,-0.616 2.693,-0.924 4.12,-0.924c1.778,0 3.278,0.294 4.501,0.88c1.221,0.586 2.209,1.388 2.961,2.404c0.753,1.017 1.295,2.205 1.628,3.563c0.332,1.359 0.499,3.006 0.499,4.941l0,16.038l0.001,0z" fill="#ffffff"/>
   <path id="svg_12" d="m259.031,125.039c0,0.273 -0.099,0.489 -0.294,0.646c-0.196,0.156 -0.504,0.269 -0.925,0.337s-1.042,0.103 -1.863,0.103c-0.881,0 -1.521,-0.034 -1.924,-0.103c-0.4,-0.068 -0.685,-0.181 -0.851,-0.337c-0.167,-0.156 -0.249,-0.371 -0.249,-0.645l0,-2.08c-1.074,1.152 -2.299,2.052 -3.674,2.696c-1.377,0.645 -2.904,0.968 -4.582,0.968c-1.386,0 -2.659,-0.181 -3.82,-0.542s-2.166,-0.898 -3.016,-1.611c-0.849,-0.713 -1.508,-1.598 -1.976,-2.652c-0.469,-1.055 -0.702,-2.285 -0.702,-3.692c0,-1.523 0.297,-2.847 0.893,-3.971c0.595,-1.123 1.482,-2.052 2.663,-2.784s2.649,-1.274 4.405,-1.626s3.795,-0.527 6.117,-0.527l2.547,0l0,-1.589c0,-0.822 -0.084,-1.543 -0.25,-2.161c-0.166,-0.617 -0.438,-1.132 -0.818,-1.544c-0.381,-0.412 -0.889,-0.715 -1.521,-0.912c-0.635,-0.195 -1.42,-0.294 -2.355,-0.294c-1.23,0 -2.327,0.138 -3.293,0.413s-1.819,0.58 -2.561,0.915s-1.361,0.64 -1.857,0.915c-0.498,0.275 -0.902,0.413 -1.215,0.413c-0.215,0 -0.404,-0.068 -0.57,-0.205s-0.303,-0.333 -0.41,-0.587s-0.189,-0.567 -0.248,-0.939c-0.059,-0.371 -0.088,-0.782 -0.088,-1.232c0,-0.606 0.049,-1.086 0.146,-1.438c0.098,-0.353 0.283,-0.67 0.557,-0.954s0.751,-0.597 1.435,-0.94c0.684,-0.342 1.483,-0.66 2.401,-0.955c0.918,-0.293 1.919,-0.533 3.003,-0.72s2.202,-0.279 3.354,-0.279c2.05,0 3.803,0.2 5.258,0.601c1.454,0.401 2.65,1.018 3.588,1.848c0.938,0.832 1.621,1.902 2.051,3.211c0.43,1.311 0.645,2.864 0.645,4.662l0,17.591l-0.001,0zm-7.25,-11.196l-2.805,0c-1.188,0 -2.201,0.089 -3.039,0.265c-0.837,0.176 -1.519,0.439 -2.044,0.791c-0.526,0.352 -0.911,0.777 -1.153,1.275c-0.244,0.498 -0.365,1.069 -0.365,1.714c0,1.095 0.346,1.954 1.037,2.579c0.691,0.626 1.65,0.938 2.877,0.938c1.031,0 1.98,-0.264 2.848,-0.792c0.867,-0.527 1.748,-1.299 2.645,-2.314l0,-4.456l-0.001,0z" fill="#ffffff"/>
   <path id="svg_13" d="m283.15,101.221c0,0.703 -0.02,1.278 -0.059,1.727c-0.039,0.449 -0.098,0.801 -0.176,1.055s-0.182,0.429 -0.309,0.526s-0.287,0.146 -0.482,0.146c-0.156,0 -0.332,-0.034 -0.527,-0.103s-0.416,-0.142 -0.66,-0.22s-0.513,-0.151 -0.806,-0.22s-0.616,-0.103 -0.968,-0.103c-0.41,0 -0.82,0.083 -1.23,0.25s-0.835,0.427 -1.274,0.78c-0.439,0.353 -0.899,0.823 -1.378,1.412c-0.479,0.588 -0.99,1.313 -1.537,2.176l0,16.303c0,0.195 -0.059,0.367 -0.176,0.514s-0.317,0.269 -0.6,0.366c-0.283,0.098 -0.659,0.171 -1.127,0.22c-0.469,0.049 -1.064,0.073 -1.785,0.073c-0.723,0 -1.318,-0.024 -1.786,-0.073s-0.844,-0.122 -1.126,-0.22c-0.283,-0.098 -0.483,-0.22 -0.601,-0.366s-0.175,-0.318 -0.175,-0.514l0,-26.153c0,-0.195 0.048,-0.367 0.146,-0.514s0.272,-0.268 0.526,-0.365s0.581,-0.172 0.98,-0.221c0.4,-0.049 0.902,-0.073 1.508,-0.073c0.624,0 1.141,0.024 1.551,0.073s0.727,0.123 0.951,0.221s0.385,0.219 0.482,0.365s0.146,0.318 0.146,0.514l0,3.254c0.684,-0.977 1.328,-1.783 1.934,-2.419s1.183,-1.14 1.729,-1.511s1.094,-0.631 1.641,-0.777s1.094,-0.22 1.641,-0.22c0.254,0 0.527,0.015 0.82,0.044s0.597,0.078 0.909,0.146s0.586,0.146 0.82,0.234s0.404,0.18 0.512,0.277s0.186,0.205 0.234,0.322s0.094,0.277 0.133,0.482s0.068,0.513 0.088,0.922c0.022,0.412 0.031,0.969 0.031,1.67z" fill="#ffffff"/>
   <path id="svg_14" d="m295.635,89.94c0,1.487 -0.303,2.515 -0.908,3.083c-0.607,0.566 -1.73,0.851 -3.371,0.851c-1.662,0 -2.779,-0.274 -3.355,-0.821c-0.578,-0.549 -0.865,-1.537 -0.865,-2.966c0,-1.487 0.297,-2.52 0.895,-3.097c0.596,-0.577 1.723,-0.866 3.385,-0.866c1.641,0 2.754,0.279 3.342,0.837c0.584,0.558 0.877,1.551 0.877,2.979zm-0.563,35.011c0,0.195 -0.059,0.367 -0.176,0.514s-0.316,0.269 -0.6,0.366s-0.658,0.171 -1.127,0.22s-1.064,0.073 -1.785,0.073c-0.723,0 -1.318,-0.024 -1.785,-0.073c-0.469,-0.049 -0.844,-0.122 -1.127,-0.22s-0.482,-0.22 -0.6,-0.366s-0.176,-0.318 -0.176,-0.514l0,-26.096c0,-0.195 0.059,-0.366 0.176,-0.513s0.316,-0.274 0.6,-0.382s0.658,-0.19 1.127,-0.249c0.467,-0.059 1.063,-0.088 1.785,-0.088c0.721,0 1.316,0.029 1.785,0.088s0.844,0.142 1.127,0.249s0.482,0.235 0.6,0.382s0.176,0.317 0.176,0.513l0,26.096z" fill="#ffffff"/>
   <path id="svg_15" d="m327.402,124.951c0,0.195 -0.059,0.367 -0.176,0.514s-0.313,0.269 -0.586,0.366s-0.648,0.171 -1.125,0.22c-0.479,0.049 -1.068,0.073 -1.771,0.073c-0.721,0 -1.32,-0.024 -1.799,-0.073s-0.854,-0.122 -1.127,-0.22s-0.467,-0.22 -0.584,-0.367c-0.117,-0.146 -0.176,-0.317 -0.176,-0.514l0,-14.935c0,-1.271 -0.094,-2.27 -0.279,-2.993s-0.455,-1.345 -0.809,-1.863c-0.352,-0.519 -0.807,-0.919 -1.365,-1.203s-1.209,-0.426 -1.953,-0.426c-0.939,0 -1.889,0.343 -2.848,1.027c-0.961,0.685 -1.959,1.683 -2.996,2.993l0,17.399c0,0.196 -0.059,0.367 -0.176,0.514c-0.117,0.147 -0.316,0.27 -0.6,0.367s-0.658,0.171 -1.127,0.22s-1.064,0.073 -1.785,0.073c-0.723,0 -1.318,-0.024 -1.785,-0.073c-0.469,-0.049 -0.844,-0.122 -1.127,-0.22s-0.482,-0.22 -0.6,-0.366s-0.176,-0.318 -0.176,-0.514l0,-26.153c0,-0.195 0.049,-0.367 0.146,-0.514s0.271,-0.268 0.525,-0.365s0.582,-0.172 0.98,-0.221c0.4,-0.049 0.902,-0.073 1.508,-0.073c0.625,0 1.141,0.024 1.551,0.073s0.727,0.123 0.951,0.221s0.385,0.219 0.482,0.365s0.146,0.318 0.146,0.514l0,3.02c1.447,-1.564 2.918,-2.736 4.414,-3.52c1.494,-0.781 3.053,-1.173 4.676,-1.173c1.779,0 3.279,0.294 4.5,0.88c1.223,0.586 2.209,1.383 2.961,2.39c0.754,1.007 1.295,2.185 1.629,3.534c0.332,1.348 0.498,2.971 0.498,4.867l0,16.156l0.003,0z" fill="#ffffff"/>
   <path id="svg_16" d="m358.189,100.622c0,0.937 -0.107,1.63 -0.322,2.079s-0.479,0.673 -0.791,0.673l-3.076,0c0.43,0.468 0.736,0.999 0.922,1.595c0.186,0.594 0.279,1.213 0.279,1.856c0,1.522 -0.254,2.875 -0.762,4.056c-0.508,1.182 -1.236,2.178 -2.184,2.987c-0.947,0.811 -2.09,1.425 -3.428,1.845s-2.826,0.63 -4.467,0.63c-0.84,0 -1.641,-0.103 -2.402,-0.308s-1.348,-0.443 -1.758,-0.717c-0.234,0.254 -0.445,0.559 -0.631,0.911s-0.277,0.745 -0.277,1.177c0,0.568 0.248,1.033 0.746,1.396s1.197,0.563 2.096,0.603l6.357,0.234c1.484,0.059 2.807,0.269 3.969,0.63s2.139,0.869 2.93,1.522c0.791,0.654 1.396,1.44 1.816,2.357s0.631,1.962 0.631,3.134c0,1.287 -0.283,2.503 -0.85,3.646c-0.566,1.142 -1.416,2.132 -2.549,2.972s-2.555,1.503 -4.264,1.992c-1.709,0.487 -3.705,0.731 -5.99,0.731c-2.227,0 -4.127,-0.176 -5.699,-0.527s-2.861,-0.84 -3.867,-1.465s-1.738,-1.372 -2.197,-2.241s-0.688,-1.821 -0.688,-2.856c0,-0.645 0.082,-1.26 0.248,-1.846s0.41,-1.147 0.732,-1.685s0.719,-1.05 1.188,-1.538s1.006,-0.957 1.611,-1.406c-0.84,-0.449 -1.49,-1.06 -1.949,-1.832s-0.688,-1.617 -0.688,-2.536c0,-1.152 0.264,-2.203 0.791,-3.151s1.211,-1.803 2.051,-2.565c-0.684,-0.683 -1.23,-1.502 -1.641,-2.459s-0.615,-2.148 -0.615,-3.573c0,-1.522 0.268,-2.884 0.805,-4.085s1.285,-2.216 2.242,-3.046c0.957,-0.829 2.1,-1.464 3.428,-1.903s2.793,-0.659 4.395,-0.659c0.82,0 1.605,0.05 2.357,0.147c0.752,0.1 1.451,0.237 2.096,0.415l8.291,0c0.332,0 0.6,0.215 0.805,0.644c0.206,0.429 0.309,1.151 0.309,2.166zm-7.734,27.052c0,-0.878 -0.352,-1.551 -1.055,-2.018c-0.703,-0.469 -1.67,-0.723 -2.9,-0.762l-5.244,-0.146c-0.508,0.37 -0.914,0.727 -1.217,1.067s-0.547,0.668 -0.732,0.98c-0.186,0.311 -0.307,0.613 -0.365,0.906c-0.059,0.292 -0.088,0.594 -0.088,0.906c0,0.975 0.492,1.716 1.479,2.223s2.379,0.761 4.176,0.761c1.113,0 2.051,-0.112 2.813,-0.337s1.377,-0.521 1.846,-0.892s0.801,-0.785 0.996,-1.243s0.291,-0.938 0.291,-1.445zm-1.728,-20.879c0,-1.406 -0.391,-2.499 -1.172,-3.28s-1.885,-1.172 -3.311,-1.172c-0.723,0 -1.357,0.122 -1.904,0.366s-1.002,0.576 -1.363,0.996s-0.629,0.908 -0.805,1.465s-0.264,1.137 -0.264,1.742c0,1.328 0.391,2.377 1.172,3.148s1.865,1.157 3.252,1.157c0.742,0 1.387,-0.117 1.934,-0.352s1,-0.556 1.361,-0.966s0.635,-0.884 0.82,-1.421s0.28,-1.097 0.28,-1.683z" fill="#ffffff"/>
  </g>
 </g>
</svg>